<?xml version="1.0" encoding="utf-8"?>
<!-- Generator: Adobe Illustrator 27.1.0, SVG Export Plug-In . SVG Version: 6.00 Build 0)  -->
<svg version="1.1" id="Layer_1" xmlns="http://www.w3.org/2000/svg" xmlns:xlink="http://www.w3.org/1999/xlink" x="0px" y="0px"
	 viewBox="0 0 425.2 425.2" style="enable-background:new 0 0 425.2 425.2;" xml:space="preserve">
<style type="text/css">
	.st0{fill:#FFFFFF;stroke:#FFFFFF;stroke-width:0.5;stroke-miterlimit:10;}
	.st1{fill:none;}
</style>
<path class="st0" d="M321.3,103.9c-39.8-23-68.9-39.8-68.9-39.8s-39.8-23-79.6,0c-39.8,23-68.9,39.8-68.9,39.8s-39.8,23-39.8,68.9
	c0,46,0,79.6,0,79.6s0,46,39.8,68.9c39.8,23,68.9,39.8,68.9,39.8s39.8,23,79.6,0c39.8-23,68.9-39.8,68.9-39.8s39.8-23,39.8-68.9
	c0-46,0-79.6,0-79.6S361.1,126.8,321.3,103.9z M79.6,212.6c0-31.8,22.4-58.4,52.3-64.9c0.2,13.6,3.9,26.3,10.1,37.5
	c-13.4,1.9-23.7,13.5-23.7,27.4c0,15.2,12.4,27.7,27.7,27.7c13.9,0,25.4-10.3,27.4-23.7c0.2-1.3,0.3-2.6,0.3-4
	c0-6.9-2.5-13.1-6.7-18c-1-1-2-2-3-3c-11.1-11.9-18-27.8-18-45.4c0-36.6,29.8-66.4,66.4-66.4c31.8,0,58.4,22.4,64.9,52.3
	c-13.4,0.2-26.2,3.8-37.5,10.1c-1.9-13.4-13.5-23.7-27.4-23.7c-15.2,0-27.6,12.4-27.6,27.7c0,6.9,2.5,13.2,6.7,18
	c0.9,1.1,1.9,2,2.9,2.9c5.4,5.7,9.7,12.3,12.8,19.6c0,0,0,0.1,0,0.1c0.2,0.5,0.4,0.9,0.6,1.4c0,0.1,0.1,0.2,0.1,0.3
	c0.2,0.4,0.3,0.8,0.4,1.2c0.1,0.4,0.3,0.8,0.4,1.1c0.1,0.3,0.2,0.6,0.3,0.9c0.1,0.3,0.2,0.6,0.3,1c0,0.1,0.1,0.2,0.1,0.4
	c0.1,0.2,0.1,0.4,0.2,0.6c0.1,0.1,0.1,0.3,0.1,0.4c0,0.1,0,0.2,0.1,0.2c0.1,0.5,0.3,1.1,0.4,1.6c0,0.1,0,0.1,0,0.1
	c0.1,0.5,0.2,1,0.4,1.4c0,0.1,0.1,0.2,0.1,0.3l0,0.2c0.1,0.4,0.2,0.8,0.2,1.1c0,0.2,0.1,0.4,0.1,0.6c0,0.2,0.1,0.4,0.1,0.6
	c0.1,0.3,0.1,0.6,0.2,0.9c0,0.1,0.1,0.3,0.1,0.5c0,0.2,0.1,0.4,0.1,0.6c0,0.1,0,0.1,0,0.1c0.1,0.5,0.2,1.1,0.2,1.6
	c0,0.1,0,0.2,0,0.2c0,0.1,0,0.2,0,0.3c0,0.3,0.1,0.7,0.1,1c0,0,0,0.1,0,0.1c0,0.3,0.1,0.6,0.1,0.9c0,0.2,0,0.3,0,0.5
	c0,0.1,0,0.2,0,0.2c0,0.3,0.1,0.7,0.1,1c0,0.2,0,0.5,0,0.7c0,0.2,0,0.3,0,0.5c0,0.2,0,0.4,0,0.6c0,0.2,0,0.4,0,0.6
	c0,0.1,0,0.1,0,0.2c0,0.5,0,1,0,1.5c0,4.8-0.5,9.5-1.5,14.1c-6.5,29.9-33.1,52.3-64.9,52.3C109.4,279,79.6,249.2,79.6,212.6z
	 M292.8,277.5c-0.2-13.2-3.8-26.1-10.1-37.5c13.4-1.9,23.7-13.5,23.7-27.4c0-15.2-12.4-27.7-27.6-27.7c-13.9,0-25.4,10.3-27.4,23.7
	c-0.2,1.3-0.3,2.6-0.3,4c0,6.9,2.5,13.1,6.7,18c1,1,2,2,3,3c11.1,11.9,18,27.8,18,45.4c0,36.6-29.8,66.4-66.4,66.4
	c-31.8,0-58.4-22.4-64.9-52.3c13.6-0.2,26.4-3.9,37.5-10.1c1.9,13.4,13.5,23.7,27.4,23.7c15.2,0,27.7-12.4,27.7-27.6
	c0-6.9-2.5-13.1-6.6-18c-0.9-1.1-1.9-2.1-3-3c-3.9-3.4-8.7-5.7-14.1-6.4c1.4-2.5,2.7-5.1,3.8-7.8l0-0.1c0.2-0.6,0.5-1.1,0.7-1.7
	c0-0.1,0-0.1,0.1-0.1c0.2-0.5,0.4-1,0.6-1.5c0-0.1,0.1-0.2,0.1-0.3c0.2-0.5,0.4-1,0.5-1.5c0,0,0-0.1,0-0.1c0.2-0.5,0.4-1.1,0.5-1.6
	c0.2-0.8,0.5-1.6,0.7-2.4c0.1-0.5,0.3-1.1,0.4-1.6c0.1-0.5,0.3-1.1,0.4-1.6c0.1-0.3,0.1-0.6,0.2-0.8c0.1-0.4,0.2-0.9,0.3-1.3
	c0.1-0.3,0.1-0.6,0.2-0.8c0-0.2,0.1-0.4,0.1-0.6c0.1-0.7,0.3-1.4,0.4-2.1c0,0,0,0,0-0.1c0.1-0.3,0.1-0.5,0.1-0.8
	c0.1-0.5,0.1-0.9,0.2-1.4c0.1-0.5,0.1-1.1,0.2-1.6c0.1-0.8,0.2-1.6,0.2-2.4c0-0.3,0.1-0.6,0.1-1c0-0.2,0-0.5,0.1-0.7
	c0-0.3,0-0.5,0-0.8c0-0.4,0-0.8,0.1-1.3c0-0.4,0-0.8,0-1.3c0-0.5,0-1,0-1.5c0-4.5-0.4-8.9-1.1-13.1c-1-6.3-2.8-12.3-5.2-18.1
	c11.2-20.9,33.2-35.2,58.6-35.2c36.6,0,66.4,29.8,66.4,66.4C345.1,244.4,322.7,271,292.8,277.5z"/>
<rect class="st1" width="425.2" height="425.2"/>
</svg>
