<svg width="301" height="50" viewBox="0 0 301 50" fill="none" xmlns="http://www.w3.org/2000/svg">
<path fill-rule="evenodd" clip-rule="evenodd" d="M0 29.7914V20.4715L23.2152 0H33.8234L0 29.7914Z" fill="#B19777"/>
<path fill-rule="evenodd" clip-rule="evenodd" d="M49.9305 14.7152L56.4815 20.5326V20.5527V29.8323L44.5869 19.345L49.9305 14.7152Z" fill="#B19777"/>
<path fill-rule="evenodd" clip-rule="evenodd" d="M28.1828 24.6786L0 49.2565V40.3191L45.9357 0H56.4844V11.2322L50.1116 5.57583L44.7284 10.266L39.4837 14.8353L33.4671 20.0891L28.1828 24.6786Z" fill="#B19777"/>
<path fill-rule="evenodd" clip-rule="evenodd" d="M38.6346 24.5182L56.4863 39.8567V48.7338L33.3701 29.0875L38.6346 24.5182Z" fill="#B19777"/>
<path fill-rule="evenodd" clip-rule="evenodd" d="M0 0V11.2322L12.6862 0H0Z" fill="#B19777"/>
<path d="M73.5232 43.9206V4.72876H80.5491V43.9206H73.5232Z" fill="black"/>
<path d="M87.9525 43.9206V4.72876H93.4347L114.631 33.7754L111.781 34.3591V4.72876H118.807V43.9206H113.266L92.4055 14.6727L94.9982 14.0889V43.9206H87.9525Z" fill="black"/>
<path d="M126.27 43.9206V4.72876H131.752L152.949 33.7754L150.099 34.3591V4.72876H157.144V43.9206H151.603L130.723 14.6727L133.316 14.0889V43.9206H126.27Z" fill="black"/>
<path d="M183.587 44.5646C180.757 44.5646 178.125 44.0613 175.671 43.0347C173.217 42.0081 171.079 40.5991 169.258 38.7673C167.438 36.9356 166.013 34.8018 164.983 32.3259C163.974 29.85 163.459 27.1728 163.459 24.2943C163.459 21.3756 163.954 18.6984 164.964 16.2426C165.973 13.7868 167.378 11.6531 169.199 9.82134C171.02 7.98958 173.157 6.58052 175.611 5.59419C178.065 4.58772 180.718 4.10461 183.567 4.10461C186.437 4.10461 189.089 4.60785 191.524 5.63444C193.978 6.66104 196.115 8.07009 197.936 9.8616C199.757 11.6732 201.182 13.807 202.211 16.2627C203.22 18.7185 203.735 21.3957 203.735 24.3145C203.735 27.193 203.22 29.8702 202.191 32.3461C201.162 34.822 199.717 36.9758 197.896 38.7875C196.076 40.6192 193.938 42.0283 191.504 43.0549C189.089 44.0412 186.437 44.5646 183.587 44.5646ZM183.587 38.0225C185.487 38.0225 187.229 37.6803 188.812 36.9959C190.395 36.3115 191.781 35.3655 192.968 34.1376C194.156 32.9097 195.066 31.4604 195.719 29.7695C196.353 28.0786 196.669 26.267 196.669 24.2943C196.669 22.3217 196.353 20.51 195.719 18.8594C195.086 17.1887 194.176 15.7394 192.968 14.4913C191.781 13.2433 190.395 12.2973 188.812 11.633C187.229 10.9687 185.487 10.6265 183.587 10.6265C181.727 10.6265 180.005 10.9687 178.422 11.633C176.838 12.2973 175.453 13.2635 174.266 14.4913C173.078 15.7394 172.148 17.1887 171.495 18.8594C170.842 20.5301 170.505 22.3418 170.505 24.2943C170.505 26.267 170.842 28.0786 171.495 29.7695C172.148 31.4604 173.078 32.9097 174.266 34.1376C175.453 35.3655 176.838 36.3115 178.422 36.9959C180.005 37.6803 181.727 38.0225 183.587 38.0225Z" fill="black"/>
<path d="M219.268 43.9206L205.829 4.72876H213.489L224.037 37.1772H222.533L233.082 4.72876H240.741L227.343 43.9206H219.268Z" fill="black"/>
<path d="M239.534 43.9206L252.834 4.72876H261.938L275.238 43.9206H267.578L264.827 35.5065H249.925L247.134 43.9206H239.534ZM251.963 29.1859H262.829L256.416 9.66045H258.376L251.963 29.1859Z" fill="black"/>
<path d="M283.766 43.9206V11.0494H273.791V4.72876H300.687V11.0494H290.851V43.9206H283.766Z" fill="black"/>
</svg>
